<?xml version="1.0" standalone="yes"?>
<svg xmlns="http://www.w3.org/2000/svg" width="512" height="512">
<path style="fill:#010101; stroke:none;" d="M0 0L0 512L512 512L512 0L0 0z"/>
<path style="fill:#470e1d; stroke:none;" d="M176.667 85.3333L177.333 85.6667L176.667 85.3333z"/>
<path style="fill:#4b8736; stroke:none;" d="M191.667 85.3333L192.333 85.6667L191.667 85.3333M320 85L319 87L318 86L318 87L320 88L322 85L320 85z"/>
<path style="fill:#470e1d; stroke:none;" d="M335 85L336 86L335 85z"/>
<path style="fill:#4b8736; stroke:none;" d="M177 86L180 89L181 87L181 86L177 86z"/>
<path style="fill:#6bbf4b; stroke:none;" d="M178 86L179 87L178 86z"/>
<path style="fill:#470e1d; stroke:none;" d="M181 86L182 87L181 86z"/>
<path style="fill:#6bbf4b; stroke:none;" d="M192 86L193 92L179 87L181 92L166 89L168 95L150 93L153 97L137 98L143 111L136 111L146 122L139 123L149 135L143 135L155 146L150 147L165 157L160 159L175 165L171 168L171 169L189 172L186 176C198.096 176 212.372 174.983 221.96 166.671C225.117 163.935 229.947 158.636 229.067 154C227.955 148.142 219.404 143.017 215 139.654C201.017 128.979 183.055 115.913 166 111L166 110C191.219 116.884 215.653 130.852 236 147L237 147C253.522 133.536 248.887 110.154 232 98L230 102L218 90L218 96L206 88L205 94L192 86z"/>
<path style="fill:#4b8736; stroke:none;" d="M194 86L195 87L194 86z"/>
<path style="fill:#6bbf4b; stroke:none;" d="M319 86L320 87L319 86z"/>
<path style="fill:#470e1d; stroke:none;" d="M331 86L332 87L331 86z"/>
<path style="fill:#4b8736; stroke:none;" d="M332 86L332 87L332 90L336 86L332 86z"/>
<path style="fill:#6bbf4b; stroke:none;" d="M334 86L335 87L334 86z"/>
<path style="fill:#4b8736; stroke:none;" d="M183 87L184 88L183 87z"/>
<path style="fill:#470e1d; stroke:none;" d="M184 87L185 88L184 87z"/>
<path style="fill:#4b8736; stroke:none;" d="M196 87L197 88L196 87M205.667 87.3333L206.333 87.6667L205.667 87.3333M306.333 87.6667L306.667 88.3333L306.333 87.6667M316 87L317 88L316 87z"/>
<path style="fill:#6bbf4b; stroke:none;" d="M309 94L308 94L306 88L295 96L294 91L284 102L282 102L281 97C271.036 104.643 264.415 118.472 265.04 131C265.32 136.6 269.219 145.632 276 145.733C282.22 145.826 291.753 135.959 297 132.684C312.276 123.151 328.963 115.764 346 110L346 111C329.458 117.887 313.347 127.954 299 138.63C294.338 142.099 286.655 146.731 284.068 152.09C281.699 156.997 286.717 162.753 290.04 165.815C299.846 174.85 314.338 176 327 176L327 175L324 171L341 168L338 167L338 165L353 160L353 159L348 157L363 147L357 146L369 136L364 135L374 123L367 123L377 111L370 111L376 98L360 98L363 93L345 95L344 94L347 89L332 92L334 87L319 92L319 87L309 94z"/>
<path style="fill:#470e1d; stroke:none;" d="M328 87L329 88L328 87z"/>
<path style="fill:#4b8736; stroke:none;" d="M329 87L330 88L329 87z"/>
<path style="fill:#470e1d; stroke:none;" d="M164 88L165 89L164 88z"/>
<path style="fill:#4b8736; stroke:none;" d="M165.333 88.6667L165.667 89.3333L165.333 88.6667z"/>
<path style="fill:#470e1d; stroke:none;" d="M166 88L167 89L166 88z"/>
<path style="fill:#4b8736; stroke:none;" d="M186 88L187 89L186 88M193 88L194 89L193 88z"/>
<path style="fill:#470e1d; stroke:none;" d="M198 88L199 89L198 88z"/>
<path style="fill:#4b8736; stroke:none;" d="M207 88L208 89L207 88z"/>
<path style="fill:#470e1d; stroke:none;" d="M208 88L209 89L208 88z"/>
<path style="fill:#4b8736; stroke:none;" d="M304 88L305 89L304 88M314 88L315 89L314 88z"/>
<path style="fill:#470e1d; stroke:none;" d="M319 88L320 89L319 88z"/>
<path style="fill:#4b8736; stroke:none;" d="M326 88L327 89L326 88z"/>
<path style="fill:#470e1d; stroke:none;" d="M346 88L348 90L346 88z"/>
<path style="fill:#4b8736; stroke:none;" d="M347 88L348 89L347 88M169.667 89.3333L170.333 89.6667L169.667 89.3333z"/>
<path style="fill:#470e1d; stroke:none;" d="M171 89L172 90L171 89z"/>
<path style="fill:#4b8736; stroke:none;" d="M188 89L189 90L188 89z"/>
<path style="fill:#470e1d; stroke:none;" d="M193 89L194 90L193 89z"/>
<path style="fill:#4b8736; stroke:none;" d="M199 89L200 90L199 89M206.333 89.6667L206.667 90.3333L206.333 89.6667M209 89L210 90L209 89M303 89L304 90L303 89z"/>
<path style="fill:#470e1d; stroke:none;" d="M306.333 89.6667L306.667 90.3333L306.333 89.6667z"/>
<path style="fill:#4b8736; stroke:none;" d="M313 89L314 90L313 89M324 89L325 90L324 89z"/>
<path style="fill:#470e1d; stroke:none;" d="M341 89L342 90L341 89z"/>
<path style="fill:#4b8736; stroke:none;" d="M342.667 89.3333L343.333 89.6667L342.667 89.3333M166 90L167 91L166 90M174 90L175 91L174 90z"/>
<path style="fill:#470e1d; stroke:none;" d="M175 90L176 91L175 90z"/>
<path style="fill:#4b8736; stroke:none;" d="M180.333 90.6667L180.667 91.3333L180.333 90.6667M190 90L191 91L190 90M193 90L194 91L193 90M200 90L201 91L200 90M210 90L211 91L210 90z"/>
<path style="fill:#470e1d; stroke:none;" d="M219 90L220 91L219 90z"/>
<path style="fill:#4b8736; stroke:none;" d="M293 90L294 95L295 95L293 90z"/>
<path style="fill:#470e1d; stroke:none;" d="M311 90L312 91L311 90z"/>
<path style="fill:#4b8736; stroke:none;" d="M322 90L323 91L322 90z"/>
<path style="fill:#470e1d; stroke:none;" d="M337 90L338 91L337 90z"/>
<path style="fill:#4b8736; stroke:none;" d="M338 90L339 91L338 90z"/>
<path style="fill:#470e1d; stroke:none;" d="M346 90L347 91L346 90z"/>
<path style="fill:#4b8736; stroke:none;" d="M167 91L168 92L167 91M177 91L178 92L177 91z"/>
<path style="fill:#470e1d; stroke:none;" d="M178 91L179 92L178 91z"/>
<path style="fill:#4b8736; stroke:none;" d="M191.667 91.3333L192.333 91.6667L191.667 91.3333z"/>
<path style="fill:#470e1d; stroke:none;" d="M202 91L203 92L202 91z"/>
<path style="fill:#4b8736; stroke:none;" d="M211 91L212 92L211 91z"/>
<path style="fill:#470e1d; stroke:none;" d="M220 91L221 92L220 91z"/>
<path style="fill:#4b8736; stroke:none;" d="M292 91L293 92L292 91z"/>
<path style="fill:#470e1d; stroke:none;" d="M300 91L301 92L300 91z"/>
<path style="fill:#4b8736; stroke:none;" d="M306 91L307 92L306 91M310 91L311 92L310 91M319 91L320 92L319 91z"/>
<path style="fill:#470e1d; stroke:none;" d="M320 91L321 92L320 91M332 91L333 92L332 91M334 91L335 92L334 91z"/>
<path style="fill:#4b8736; stroke:none;" d="M335 91L336 92L335 91z"/>
<path style="fill:#470e1d; stroke:none;" d="M345 91L346 92L345 91z"/>
<path style="fill:#4b8736; stroke:none;" d="M149 94L152 93L149 94M157 92L157 93L160 93L157 92z"/>
<path style="fill:#470e1d; stroke:none;" d="M160 92L161 93L160 92M203 92L204 93L203 92z"/>
<path style="fill:#4b8736; stroke:none;" d="M205 92L206 93L205 92z"/>
<path style="fill:#470e1d; stroke:none;" d="M221 92L222 93L221 92z"/>
<path style="fill:#4b8736; stroke:none;" d="M291 92L292 93L291 92z"/>
<path style="fill:#470e1d; stroke:none;" d="M299 92L300 93L299 92M307 92L308 93L307 92z"/>
<path style="fill:#4b8736; stroke:none;" d="M309 92L310 93L309 92M344.333 92.6667L344.667 93.3333L344.333 92.6667z"/>
<path style="fill:#470e1d; stroke:none;" d="M352 92L353 93L352 92z"/>
<path style="fill:#4b8736; stroke:none;" d="M353 92L353 93L357 93L353 92M360 92L360 93L364 94L364 93L360 92z"/>
<path style="fill:#470e1d; stroke:none;" d="M363 92L364 93L363 92z"/>
<path style="fill:#4b8736; stroke:none;" d="M162.667 93.3333L163.333 93.6667L162.667 93.3333z"/>
<path style="fill:#470e1d; stroke:none;" d="M164 93L165 94L164 93z"/>
<path style="fill:#4b8736; stroke:none;" d="M204 93L205 94L204 93z"/>
<path style="fill:#470e1d; stroke:none;" d="M222 93L223 94L222 93z"/>
<path style="fill:#4b8736; stroke:none;" d="M290 93L291 94L290 93z"/>
<path style="fill:#470e1d; stroke:none;" d="M298 93L299 94L298 93z"/>
<path style="fill:#4b8736; stroke:none;" d="M308 93L309 94L308 93z"/>
<path style="fill:#470e1d; stroke:none;" d="M348 93L349 94L348 93z"/>
<path style="fill:#4b8736; stroke:none;" d="M349.667 93.3333L350.333 93.6667L349.667 93.3333M150 94L151 95L150 94M166.667 94.3333L167.333 94.6667L166.667 94.3333M214 94L215 95L214 94z"/>
<path style="fill:#470e1d; stroke:none;" d="M217 94L218 95L217 94M223 94L224 95L223 94z"/>
<path style="fill:#4b8736; stroke:none;" d="M289 94L290 95L289 94z"/>
<path style="fill:#470e1d; stroke:none;" d="M297 94L298 95L297 94z"/>
<path style="fill:#4b8736; stroke:none;" d="M345.667 94.3333L346.333 94.6667L345.667 94.3333M362 94L363 95L362 94M151 95L152 96L151 95M215 95L216 96L215 95M217 95L218 96L217 95z"/>
<path style="fill:#470e1d; stroke:none;" d="M224 95L225 96L224 95z"/>
<path style="fill:#4b8736; stroke:none;" d="M288 95L289 96L288 95M295 95L296 96L295 95M361 95L362 96L361 95M152 96L153 97L152 96z"/>
<path style="fill:#470e1d; stroke:none;" d="M225 96L226 97L225 96z"/>
<path style="fill:#4b8736; stroke:none;" d="M287 96L288 97L287 96M360 96L372 98L372 97L360 96M136 99L152 98C148.011 96.326 139.01 95.5559 136 99M231 97L231 99L233 97L231 97z"/>
<path style="fill:#470e1d; stroke:none;" d="M279 97L280 98L279 97M286 97L287 98L286 97M372 97L372 98L377 98L372 97z"/>
<path style="fill:#4b8736; stroke:none;" d="M226 98L227 99L226 98M233 98L234 99L233 98z"/>
<path style="fill:#470e1d; stroke:none;" d="M278 98L279 99L278 98M281 98L282 99L281 98M285 98L286 99L285 98z"/>
<path style="fill:#4b8736; stroke:none;" d="M137 99L138 100L137 99M227 99L228 100L227 99M234 99L235 100L234 99M281 99L282 100L281 99M375 99L376 100L375 99M228 100L229 101L228 100z"/>
<path style="fill:#470e1d; stroke:none;" d="M230 100L231 101L230 100z"/>
<path style="fill:#4b8736; stroke:none;" d="M235 100L236 101L235 100M374 100L375 101L374 100M138 101L139 102L138 101M229 101L230 102L229 101M236 101L237 102L236 101M276 101L277 102L276 101M282.667 101.333L283.333 101.667L282.667 101.333M139 102L140 103L139 102z"/>
<path style="fill:#470e1d; stroke:none;" d="M237 102L238 103L237 102z"/>
<path style="fill:#4b8736; stroke:none;" d="M275 102L276 103L275 102M373 102L374 103L373 102z"/>
<path style="fill:#470e1d; stroke:none;" d="M139 103L140 104L139 103M274 103L275 104L274 103z"/>
<path style="fill:#4b8736; stroke:none;" d="M140 104L141 105L140 104M238 104L239 105L238 104z"/>
<path style="fill:#470e1d; stroke:none;" d="M372 104L373 105L372 104M140 105L141 106L140 105z"/>
<path style="fill:#4b8736; stroke:none;" d="M239 105L240 106L239 105M273 105L274 106L273 105M141.333 106.667L141.667 107.333L141.333 106.667z"/>
<path style="fill:#470e1d; stroke:none;" d="M240 106L241 107L240 106z"/>
<path style="fill:#4b8736; stroke:none;" d="M272 106L273 107L272 106M371 106L372 107L371 106M240 107L241 108L240 107M241 108L242 109L241 108M271 108L272 109L271 108M370 108L370 111L371 111L370 108M142.333 109.667L142.667 110.333L142.333 109.667M270 109L271 110L270 109M135.667 110.333L136.333 110.667L135.667 110.333z"/>
<path style="fill:#470e1d; stroke:none;" d="M137 110L137 111L142 111L137 110z"/>
<path style="fill:#4b8736; stroke:none;" d="M166 110L166 111L169 112L166 110M242 110L243 111L242 110M344 110L344 112L346 110L344 110z"/>
<path style="fill:#470e1d; stroke:none;" d="M373 110L373 111L376 111L373 110z"/>
<path style="fill:#4b8736; stroke:none;" d="M376 110L377 111L376 110z"/>
<path style="fill:#470e1d; stroke:none;" d="M135 111L136 112L135 111M169 111L170 112L169 111z"/>
<path style="fill:#4b8736; stroke:none;" d="M170.333 111.667L170.667 112.333L170.333 111.667z"/>
<path style="fill:#470e1d; stroke:none;" d="M243 111L244 112L243 111z"/>
<path style="fill:#4b8736; stroke:none;" d="M269 111L270 112L269 111M341 111L343 113L341 111z"/>
<path style="fill:#470e1d; stroke:none;" d="M342.667 111.333L343.333 111.667L342.667 111.333z"/>
<path style="fill:#4b8736; stroke:none;" d="M136 112L137 113L136 112z"/>
<path style="fill:#010101; stroke:none;" d="M171 112L172 113L171 112z"/>
<path style="fill:#470e1d; stroke:none;" d="M172 112L173 113L172 112z"/>
<path style="fill:#4b8736; stroke:none;" d="M173 112L172 114L173 112M243 112L244 113L243 112M339 112L341 114L339 112z"/>
<path style="fill:#010101; stroke:none;" d="M340 112L341 113L340 112z"/>
<path style="fill:#470e1d; stroke:none;" d="M341 112L342 113L341 112M376 112L377 113L376 112z"/>
<path style="fill:#010101; stroke:none;" d="M173.667 113.333L174.333 113.667L173.667 113.333z"/>
<path style="fill:#470e1d; stroke:none;" d="M175 113L176 114L175 113z"/>
<path style="fill:#4b8736; stroke:none;" d="M176 113L177 114L176 113z"/>
<path style="fill:#470e1d; stroke:none;" d="M244 113L245 114L244 113z"/>
<path style="fill:#4b8736; stroke:none;" d="M268 113L269 114L268 113M336 113L337 114L336 113z"/>
<path style="fill:#470e1d; stroke:none;" d="M337 113L338 114L337 113z"/>
<path style="fill:#010101; stroke:none;" d="M338 113L339 114L338 113z"/>
<path style="fill:#470e1d; stroke:none;" d="M339 113L340 114L339 113z"/>
<path style="fill:#4b8736; stroke:none;" d="M375 113L376 114L375 113z"/>
<path style="fill:#470e1d; stroke:none;" d="M137 114L138 115L137 114z"/>
<path style="fill:#4b8736; stroke:none;" d="M174 114L175 115L174 114M178 114L179 115L178 114M244 114L245 115L244 114M333 114L334 115L333 114z"/>
<path style="fill:#470e1d; stroke:none;" d="M334 114L335 115L334 114z"/>
<path style="fill:#4b8736; stroke:none;" d="M338 114L339 115L338 114z"/>
<path style="fill:#470e1d; stroke:none;" d="M138 115L139 116L138 115z"/>
<path style="fill:#4b8736; stroke:none;" d="M176 115L177 116L176 115z"/>
<path style="fill:#470e1d; stroke:none;" d="M180 115L181 116L180 115z"/>
<path style="fill:#4b8736; stroke:none;" d="M181 115L182 116L181 115M267 115L268 116L267 115M331 115L332 116L331 115M336 115L337 116L336 115z"/>
<path style="fill:#470e1d; stroke:none;" d="M139 116L140 117L139 116M178 116L179 117L178 116z"/>
<path style="fill:#4b8736; stroke:none;" d="M183 116L184 117L183 116M245 116L246 117L245 116M328 116L329 117L328 116z"/>
<path style="fill:#470e1d; stroke:none;" d="M329 116L330 117L329 116z"/>
<path style="fill:#4b8736; stroke:none;" d="M334 116L335 117L334 116z"/>
<path style="fill:#470e1d; stroke:none;" d="M140 117L141 118L140 117z"/>
<path style="fill:#4b8736; stroke:none;" d="M179 117L180 118L179 117z"/>
<path style="fill:#470e1d; stroke:none;" d="M180 117L181 118L180 117M185 117L186 118L185 117z"/>
<path style="fill:#4b8736; stroke:none;" d="M186 117L187 118L186 117z"/>
<path style="fill:#470e1d; stroke:none;" d="M266 117L267 118L266 117z"/>
<path style="fill:#4b8736; stroke:none;" d="M326 117L327 118L326 117z"/>
<path style="fill:#470e1d; stroke:none;" d="M327 117L328 118L327 117z"/>
<path style="fill:#4b8736; stroke:none;" d="M332 117L333 118L332 117M371 117L372 118L371 117M181 118L182 119L181 118M188 118L189 119L188 118z"/>
<path style="fill:#470e1d; stroke:none;" d="M246 118L247 119L246 118z"/>
<path style="fill:#4b8736; stroke:none;" d="M266 118L267 119L266 118M324 118L325 119L324 118z"/>
<path style="fill:#470e1d; stroke:none;" d="M330 118L331 119L330 118z"/>
<path style="fill:#4b8736; stroke:none;" d="M370 118L371 119L370 118M143 119L144 120L143 119M183 119L184 120L183 119M190 119L191 120L190 119M246 119L247 120L246 119M321 119L322 120L321 119z"/>
<path style="fill:#470e1d; stroke:none;" d="M322 119L323 120L322 119M328 119L329 120L328 119z"/>
<path style="fill:#4b8736; stroke:none;" d="M329 119L330 120L329 119M369 119L370 120L369 119M144 120L145 121L144 120M185 120L186 121L185 120M192 120L193 121L192 120z"/>
<path style="fill:#470e1d; stroke:none;" d="M265 120L266 121L265 120z"/>
<path style="fill:#4b8736; stroke:none;" d="M319 120L320 121L319 120z"/>
<path style="fill:#470e1d; stroke:none;" d="M320 120L321 121L320 120z"/>
<path style="fill:#4b8736; stroke:none;" d="M327 120L328 121L327 120M368 120L369 121L368 120M145 121L146 122L145 121z"/>
<path style="fill:#470e1d; stroke:none;" d="M187 121L188 122L187 121M194 121L195 122L194 121z"/>
<path style="fill:#4b8736; stroke:none;" d="M195 121L196 122L195 121z"/>
<path style="fill:#470e1d; stroke:none;" d="M247 121L248 122L247 121z"/>
<path style="fill:#4b8736; stroke:none;" d="M265 121L266 122L265 121M317 121L318 122L317 121M325 121L326 122L325 121M367.333 121.667L367.667 122.333L367.333 121.667M138.333 122.667L138.667 123.333L138.333 122.667z"/>
<path style="fill:#470e1d; stroke:none;" d="M139 122L140 123L139 122M144 122L145 123L144 122z"/>
<path style="fill:#4b8736; stroke:none;" d="M188 122L189 123L188 122z"/>
<path style="fill:#470e1d; stroke:none;" d="M196 122L197 123L196 122z"/>
<path style="fill:#4b8736; stroke:none;" d="M197 122L198 123L197 122M247.333 122.667L247.667 123.333L247.333 122.667M315 122L316 123L315 122z"/>
<path style="fill:#470e1d; stroke:none;" d="M323 122L324 123L323 122M373 122L375 124L373 122z"/>
<path style="fill:#4b8736; stroke:none;" d="M374 122L375 123L374 122M190 123L191 124L190 123z"/>
<path style="fill:#470e1d; stroke:none;" d="M198 123L199 124L198 123z"/>
<path style="fill:#4b8736; stroke:none;" d="M199 123L200 124L199 123M313 123L314 124L313 123z"/>
<path style="fill:#470e1d; stroke:none;" d="M321 123L322 124L321 123z"/>
<path style="fill:#4b8736; stroke:none;" d="M322 123L323 124L322 123M192 124L193 125L192 124z"/>
<path style="fill:#470e1d; stroke:none;" d="M200 124L201 125L200 124z"/>
<path style="fill:#4b8736; stroke:none;" d="M201 124L202 125L201 124z"/>
<path style="fill:#470e1d; stroke:none;" d="M264 124L265 125L264 124z"/>
<path style="fill:#4b8736; stroke:none;" d="M311 124L312 125L311 124M320 124L321 125L320 124M373 124L374 125L373 124z"/>
<path style="fill:#470e1d; stroke:none;" d="M139 125L140 126L139 125z"/>
<path style="fill:#4b8736; stroke:none;" d="M193 125L194 126L193 125z"/>
<path style="fill:#470e1d; stroke:none;" d="M194 125L195 126L194 125M202 125L203 126L202 125z"/>
<path style="fill:#4b8736; stroke:none;" d="M203 125L204 126L203 125M264 125L264 133L265 133L264 125M309 125L310 126L309 125M318 125L319 126L318 125M372 125L373 126L372 125z"/>
<path style="fill:#470e1d; stroke:none;" d="M140 126L141 127L140 126z"/>
<path style="fill:#4b8736; stroke:none;" d="M195 126L196 127L195 126z"/>
<path style="fill:#470e1d; stroke:none;" d="M204 126L205 127L204 126M248 126L248 132L249 132L248 126z"/>
<path style="fill:#4b8736; stroke:none;" d="M307 126L308 127L307 126z"/>
<path style="fill:#470e1d; stroke:none;" d="M316 126L317 127L316 126z"/>
<path style="fill:#4b8736; stroke:none;" d="M317 126L318 127L317 126M141 127L142 128L141 127z"/>
<path style="fill:#470e1d; stroke:none;" d="M197 127L198 128L197 127z"/>
<path style="fill:#4b8736; stroke:none;" d="M206 127L207 128L206 127M305 127L306 128L305 127z"/>
<path style="fill:#470e1d; stroke:none;" d="M306 127L307 128L306 127z"/>
<path style="fill:#4b8736; stroke:none;" d="M315 127L316 128L315 127z"/>
<path style="fill:#470e1d; stroke:none;" d="M371 127L372 128L371 127z"/>
<path style="fill:#4b8736; stroke:none;" d="M142 128L143 129L142 128M198 128L199 129L198 128M208 128L209 129L208 128z"/>
<path style="fill:#470e1d; stroke:none;" d="M304 128L305 129L304 128M313 128L314 129L313 128M370 128L371 129L370 128z"/>
<path style="fill:#4b8736; stroke:none;" d="M143 129L144 130L143 129M200 129L201 130L200 129M210 129L211 130L210 129M302 129L303 130L302 129M312 129L313 130L312 129z"/>
<path style="fill:#470e1d; stroke:none;" d="M369 129L370 130L369 129M144 130L145 131L144 130z"/>
<path style="fill:#4b8736; stroke:none;" d="M201 130L202 131L201 130z"/>
<path style="fill:#470e1d; stroke:none;" d="M211 130L212 131L211 130z"/>
<path style="fill:#4b8736; stroke:none;" d="M212 130L213 131L212 130M300 130L301 131L300 130M310 130L311 131L310 130z"/>
<path style="fill:#470e1d; stroke:none;" d="M145 131L146 132L145 131z"/>
<path style="fill:#4b8736; stroke:none;" d="M203 131L204 132L203 131z"/>
<path style="fill:#470e1d; stroke:none;" d="M213 131L214 132L213 131z"/>
<path style="fill:#4b8736; stroke:none;" d="M298 131L299 132L298 131z"/>
<path style="fill:#470e1d; stroke:none;" d="M299 131L300 132L299 131z"/>
<path style="fill:#4b8736; stroke:none;" d="M309 131L310 132L309 131M366 131L367 132L366 131M204 132L205 133L204 132z"/>
<path style="fill:#470e1d; stroke:none;" d="M205 132L206 133L205 132z"/>
<path style="fill:#4b8736; stroke:none;" d="M215 132L216 133L215 132M297 132L298 133L297 132M307 132L308 133L307 132M365 132L366 133L365 132M206 133L207 134L206 133z"/>
<path style="fill:#470e1d; stroke:none;" d="M216 133L217 134L216 133z"/>
<path style="fill:#4b8736; stroke:none;" d="M217 133L218 134L217 133z"/>
<path style="fill:#470e1d; stroke:none;" d="M264 133L265 134L264 133z"/>
<path style="fill:#4b8736; stroke:none;" d="M295 133L296 134L295 133M306 133L307 134L306 133M364 133L365 134L364 133M148 134L149 135L148 134M207 134L208 135L207 134M218 134L219 135L218 134M247.333 134.667L247.667 135.333L247.333 134.667z"/>
<path style="fill:#470e1d; stroke:none;" d="M294 134L295 135L294 134M304 134L305 135L304 134z"/>
<path style="fill:#4b8736; stroke:none;" d="M142 135L143 136L142 135M144 135L144 136L147 136L144 135M209 135L210 136L209 135M220 135L221 136L220 135M265.333 135.667L265.667 136.333L265.333 135.667M292 135L293 136L292 135M303 135L304 136L303 135M366 135L366 136L370 136L366 135M143 136L144 137L143 136M210 136L211 137L210 136z"/>
<path style="fill:#470e1d; stroke:none;" d="M221 136L222 137L221 136z"/>
<path style="fill:#4b8736; stroke:none;" d="M290 136L291 137L290 136z"/>
<path style="fill:#470e1d; stroke:none;" d="M291 136L292 137L291 136M301 136L302 137L301 136M369 136L370 137L369 136z"/>
<path style="fill:#4b8736; stroke:none;" d="M144 137L145 138L144 137z"/>
<path style="fill:#470e1d; stroke:none;" d="M212 137L213 138L212 137z"/>
<path style="fill:#4b8736; stroke:none;" d="M223 137L224 138L223 137M246 137L247 138L246 137M289 137L290 138L289 137M300 137L301 138L300 137z"/>
<path style="fill:#470e1d; stroke:none;" d="M368 137L369 138L368 137z"/>
<path style="fill:#4b8736; stroke:none;" d="M145 138L146 139L145 138M213 138L214 139L213 138M224 138L225 139L224 138M266 138L267 139L266 138z"/>
<path style="fill:#470e1d; stroke:none;" d="M288 138L289 139L288 138z"/>
<path style="fill:#4b8736; stroke:none;" d="M299 138L300 139L299 138z"/>
<path style="fill:#470e1d; stroke:none;" d="M367 138L368 139L367 138M146 139L147 140L146 139z"/>
<path style="fill:#4b8736; stroke:none;" d="M214 139L215 140L214 139M226 139L227 140L226 139M245 139L246 140L245 139M267 139L268 140L267 139M286 139L287 140L286 139z"/>
<path style="fill:#470e1d; stroke:none;" d="M297 139L298 140L297 139z"/>
<path style="fill:#4b8736; stroke:none;" d="M365 139L366 140L365 139z"/>
<path style="fill:#470e1d; stroke:none;" d="M216 140L217 141L216 140z"/>
<path style="fill:#4b8736; stroke:none;" d="M227 140L228 141L227 140M244 140L245 141L244 140z"/>
<path style="fill:#470e1d; stroke:none;" d="M285 140L286 141L285 140z"/>
<path style="fill:#4b8736; stroke:none;" d="M296 140L297 141L296 140M364 140L365 141L364 140M149 141L150 142L149 141M217 141L218 142L217 141z"/>
<path style="fill:#470e1d; stroke:none;" d="M228 141L229 142L228 141z"/>
<path style="fill:#4b8736; stroke:none;" d="M243 141L244 142L243 141z"/>
<path style="fill:#470e1d; stroke:none;" d="M268 141L269 142L268 141z"/>
<path style="fill:#4b8736; stroke:none;" d="M283 141L284 142L283 141M295 141L296 142L295 141M363 141L364 142L363 141M150 142L151 143L150 142M218 142L219 143L218 142M230 142L231 143L230 142M242 142L243 143L242 142M269 142L270 143L269 142M282 142L283 143L282 142z"/>
<path style="fill:#470e1d; stroke:none;" d="M293 142L294 143L293 142M362 142L363 143L362 142z"/>
<path style="fill:#4b8736; stroke:none;" d="M152 143L153 144L152 143M219 143L220 144L219 143M231 143L232 144L231 143M241 143L242 144L241 143z"/>
<path style="fill:#470e1d; stroke:none;" d="M270 143L271 144L270 143M281 143L282 144L281 143M292 143L293 144L292 143z"/>
<path style="fill:#4b8736; stroke:none;" d="M360 143L361 144L360 143M153 144L154 145L153 144z"/>
<path style="fill:#470e1d; stroke:none;" d="M221 144L222 145L221 144M232 144L233 145L232 144z"/>
<path style="fill:#4b8736; stroke:none;" d="M240 144L241 145L240 144M272 144L273 145L272 144M279 144L280 145L279 144M291 144L292 145L291 144z"/>
<path style="fill:#470e1d; stroke:none;" d="M359 144L360 145L359 144M222 145L223 146L222 145z"/>
<path style="fill:#4b8736; stroke:none;" d="M234 145L235 146L234 145M238 145L239 146L238 145z"/>
<path style="fill:#470e1d; stroke:none;" d="M239 145L240 146L239 145z"/>
<path style="fill:#4b8736; stroke:none;" d="M273 145L274 146L273 145M278 145L279 146L278 145M290 145L291 146L290 145M357 145L358 146L357 145z"/>
<path style="fill:#470e1d; stroke:none;" d="M148 146L148 147L151 147L148 146z"/>
<path style="fill:#4b8736; stroke:none;" d="M151 146L151 147L154 147L151 146M223 146L224 147L223 146M235 146L236 147L235 146M237 146L238 147L237 146M275 146L276 147L275 146M277 146L278 147L277 146M289 146L290 147L289 146M358.667 146.333L359.333 146.667L358.667 146.333z"/>
<path style="fill:#470e1d; stroke:none;" d="M360 146L360 147L364 147L360 146z"/>
<path style="fill:#4b8736; stroke:none;" d="M149 147L150 148L149 147M224 147L225 148L224 147M288 147L289 148L288 147M363 147L364 148L363 147M150 148L151 149L150 148M225 148L226 149L225 148M287 148L288 149L287 148M362 148L363 149L362 148M151 149L152 150L151 149M226 149L227 150L226 149z"/>
<path style="fill:#470e1d; stroke:none;" d="M361 149L362 150L361 149z"/>
<path style="fill:#4b8736; stroke:none;" d="M153 150L154 151L153 150M227 150L228 151L227 150M359 150L360 151L359 150M154 151L155 152L154 151M228 151L229 152L228 151M357 151L358 152L357 151z"/>
<path style="fill:#470e1d; stroke:none;" d="M358 151L359 152L358 151z"/>
<path style="fill:#4b8736; stroke:none;" d="M156 152L157 153L156 152M229 152L230 153L229 152M356 152L357 153L356 152M158 153L159 154L158 153z"/>
<path style="fill:#470e1d; stroke:none;" d="M230 153L231 154L230 153z"/>
<path style="fill:#4b8736; stroke:none;" d="M282.333 153.667L282.667 154.333L282.333 153.667M354 153L355 154L354 153M160 154L161 155L160 154M352 154L353 155L352 154M162 155L163 156L162 155M229.333 155.667L229.667 156.333L229.333 155.667M350 155L351 156L350 155M164 156L165 157L164 156M283 156L284 157L283 156M348 156L349 157L348 156M163 157L164 158L163 157z"/>
<path style="fill:#470e1d; stroke:none;" d="M283 157L284 158L283 157M349 157L350 158L349 157z"/>
<path style="fill:#4b8736; stroke:none;" d="M158 158L159 160L160 160L161 158L158 158M228 158L229 159L228 158M351 158L351 159L355 159L351 158z"/>
<path style="fill:#470e1d; stroke:none;" d="M284 159L285 160L284 159M353 159L354 160L353 159z"/>
<path style="fill:#4b8736; stroke:none;" d="M161 160L162 161L161 160M227 160L228 161L227 160M285 160L286 161L285 160M351 160L352 161L351 160M163 161L164 162L163 161M226 161L227 162L226 161M348 161L349 162L348 161z"/>
<path style="fill:#470e1d; stroke:none;" d="M349 161L350 162L349 161M165 162L166 163L165 162z"/>
<path style="fill:#4b8736; stroke:none;" d="M166 162L167 163L166 162M286 162L287 163L286 162M346 162L347 163L346 162z"/>
<path style="fill:#470e1d; stroke:none;" d="M168 163L169 164L168 163z"/>
<path style="fill:#4b8736; stroke:none;" d="M169 163L170 164L169 163z"/>
<path style="fill:#470e1d; stroke:none;" d="M225 163L226 164L225 163z"/>
<path style="fill:#4b8736; stroke:none;" d="M287 163L288 164L287 163M342.667 163.333L343.333 163.667L342.667 163.333z"/>
<path style="fill:#470e1d; stroke:none;" d="M171 164L172 165L171 164z"/>
<path style="fill:#4b8736; stroke:none;" d="M172 164L173 165L172 164M224 164L225 165L224 164M288 164L289 165L288 164M339.667 164.333L340.333 164.667L339.667 164.333M174 165L175 166L174 165M223 165L224 166L223 165M289 165L290 166L289 165z"/>
<path style="fill:#470e1d; stroke:none;" d="M173 166L174 167L173 166M222 166L223 167L222 166z"/>
<path style="fill:#4b8736; stroke:none;" d="M290 166L291 167L290 166M338 166L339 167L338 166z"/>
<path style="fill:#470e1d; stroke:none;" d="M171 167L172 168L171 167z"/>
<path style="fill:#4b8736; stroke:none;" d="M172 167L173 168L172 167z"/>
<path style="fill:#470e1d; stroke:none;" d="M221 167L222 168L221 167z"/>
<path style="fill:#4b8736; stroke:none;" d="M291 167L292 168L291 167M340 167L342 169L340 167z"/>
<path style="fill:#470e1d; stroke:none;" d="M341 167L342 168L341 167z"/>
<path style="fill:#4b8736; stroke:none;" d="M170 168L171 169L170 168M219 168L220 169L219 168z"/>
<path style="fill:#470e1d; stroke:none;" d="M292 168L293 169L292 168z"/>
<path style="fill:#4b8736; stroke:none;" d="M293 168L294 169L293 168z"/>
<path style="fill:#470e1d; stroke:none;" d="M342 168L343 169L342 168M172 169L173 170L172 169z"/>
<path style="fill:#4b8736; stroke:none;" d="M173 169L174 170L173 169z"/>
<path style="fill:#470e1d; stroke:none;" d="M218 169L219 170L218 169z"/>
<path style="fill:#4b8736; stroke:none;" d="M294 169L295 170L294 169M338.667 169.333L339.333 169.667L338.667 169.333z"/>
<path style="fill:#470e1d; stroke:none;" d="M340 169L341 170L340 169M176 170L177 171L176 170z"/>
<path style="fill:#4b8736; stroke:none;" d="M177 170L177 171L181 171L177 170M216 170L217 171L216 170M296 170L297 171L296 170M332 170L332 171L336 171L332 170z"/>
<path style="fill:#470e1d; stroke:none;" d="M336 170L337 171L336 170M186 171L187 172L186 171z"/>
<path style="fill:#4b8736; stroke:none;" d="M187 171L188 172L187 171M214 171L215 172L214 171M298 171L299 172L298 171M324.667 171.333L325.333 171.667L324.667 171.333z"/>
<path style="fill:#470e1d; stroke:none;" d="M326 171L327 172L326 171M188 172L189 173L188 172z"/>
<path style="fill:#4b8736; stroke:none;" d="M211 172L212 173L211 172z"/>
<path style="fill:#470e1d; stroke:none;" d="M212 172L213 173L212 172z"/>
<path style="fill:#4b8736; stroke:none;" d="M300.667 172.333L301.333 172.667L300.667 172.333M208 173L209 174L208 173z"/>
<path style="fill:#470e1d; stroke:none;" d="M209 173L210 174L209 173z"/>
<path style="fill:#4b8736; stroke:none;" d="M303.667 173.333L304.333 173.667L303.667 173.333M324 173L325 174L324 173M204.667 174.333L205.333 174.667L204.667 174.333z"/>
<path style="fill:#470e1d; stroke:none;" d="M206 174L207 175L206 174M306 174L307 175L306 174z"/>
<path style="fill:#4b8736; stroke:none;" d="M307.667 174.333L308.333 174.667L307.667 174.333M325 174L326 175L325 174M185 175L186 176L185 175M197 175L197 176L201 176L197 175z"/>
<path style="fill:#470e1d; stroke:none;" d="M201 175L202 176L201 175M311 175L312 176L311 175z"/>
<path style="fill:#4b8736; stroke:none;" d="M312 175L312 176L315 176L312 175z"/>
<path style="fill:#470e1d; stroke:none;" d="M327 175L320 176L320 177L327 175M185 176L185 177L193 177L185 176M248 177L248 178L251 178L248 177z"/>
<path style="fill:#c11d4a; stroke:none;" d="M251 177.428C239.264 179.113 210.256 190.816 221.653 206.985C231.065 220.338 253.291 221.622 268 219.711C272.358 219.144 276.91 218.156 281 216.535C293.401 211.624 298.553 199.066 287.957 189.184C278.568 180.43 263.726 175.601 251 177.428z"/>
<path style="fill:#470e1d; stroke:none;" d="M262 177L262 178L265 178L262 177M244 178L245 179L244 178M267.667 178.333L268.333 178.667L267.667 178.333M241 179L242 180L241 179M270.667 179.333L271.333 179.667L270.667 179.333M238 180L239 181L238 180M273 180L274 181L273 180M236 181L237 182L236 181M276 181L277 182L276 181M234 182L235 183L234 182M278 182L279 183L278 182M232 183L233 184L232 183M280 183L281 184L280 183M193 184L193 185L197 185L193 184z"/>
<path style="fill:#c11d4a; stroke:none;" d="M156 235C172.876 230.992 188.119 215.88 200 204C205.535 198.466 211.22 193.479 214 186C185.284 177.274 146.276 202.102 156 235z"/>
<path style="fill:#470e1d; stroke:none;" d="M206 184L206 185L211 185L206 184M281 184L282 185L281 184M188.667 185.333L189.333 185.667L188.667 185.333M213 185L214 186L213 185M229 185L230 186L229 185M283 185L284 186L283 185M302 185L302 186L307 186L302 185z"/>
<path style="fill:#c11d4a; stroke:none;" d="M300 186C301.813 202.377 327.471 218.782 340 227.562C343.329 229.894 353.057 237.754 357.397 234.879C362.808 231.294 355.86 213.26 353.73 209C342.788 187.12 321.379 185.559 300 186z"/>
<path style="fill:#470e1d; stroke:none;" d="M316 185L316 186L321 186L316 185M184.667 186.333L185.333 186.667L184.667 186.333M228 186L229 187L228 186M284 186L285 187L284 186M323.667 186.333L324.333 186.667L323.667 186.333M182 187L183 188L182 187M213.333 187.667L213.667 188.333L213.333 187.667M299.333 187.667L299.667 188.333L299.333 187.667M327.667 187.333L328.333 187.667L327.667 187.333M179.667 188.333L180.333 188.667L179.667 188.333M225 188L226 189L225 188M287 188L288 189L287 188M330.667 188.333L331.333 188.667L330.667 188.333M177 189L178 190L177 189M224 189L225 190L224 189M288 189L289 190L288 189M333 189L334 190L333 189M176 190L177 191L176 190M223 190L224 191L223 190M289 190L290 191L289 190M300 190L301 191L300 190M335 190L336 191L335 190M174 191L175 192L174 191M211 191L212 192L211 191M222 191L223 192L222 191M290 191L291 192L290 191M337 191L338 192L337 191M301 192L302 193L301 192M338 192L339 193L338 192M171 193L172 194L171 193M302 193L303 194L302 193M340 193L341 194L340 193M170 194L171 195L170 194M209 194L210 195L209 194M220 194L221 195L220 194M292 194L293 195L292 194M303 194L304 195L303 194M341 194L342 195L341 194M208 195L209 196L208 195M207 196L208 197L207 196M219 196L220 197L219 196M293 196L294 197L293 196M344 196L345 197L344 196M206 197L207 198L206 197M345 197L346 198L345 197M205 198L206 199L205 198M294 198L294 205L295 205L294 198M306 198L307 199L306 198M346 198L347 199L346 198M204 199L205 200L204 199M307 199L308 200L307 199M347 199L348 200L347 199M164 200L165 201L164 200M203 200L204 201L203 200M308 200L309 201L308 200M163 201L164 202L163 201M202 201L203 202L202 201M309 201L310 202L309 201M162 202L163 203L162 202M201 202L202 203L201 202M310 202L311 203L310 202M200 203L201 204L200 203M219 203L220 204L219 203M311 203L312 204L311 203M350 203L351 204L350 203M161 204L162 205L161 204M199 204L200 205L199 204M312 204L313 205L312 204M351 204L352 205L351 204M198 205L199 206L198 205M220 205L221 206L220 205M313 205L314 206L313 205M197 206L198 207L197 206M293 206L294 207L293 206M314 206L315 207L314 206M352 206L353 207L352 206M159 207L160 208L159 207M196 207L197 208L196 207M315 207L316 208L315 207M195 208L196 209L195 208M222 208L223 209L222 208M292 208L293 209L292 208M316 208L317 209L316 208M353 208L354 209L353 208M158.333 209.667L158.667 210.333L158.333 209.667M194 209L195 210L194 209M223 209L224 210L223 209M291 209L292 210L291 209M193 210L194 211L193 210M224 210L225 211L224 210M290 210L291 211L290 210M354 210L355 211L354 210M225 211L226 212L225 211M289 211L290 212L289 211M157 212L158 213L157 212M227 212L228 213L227 212M288 212L289 213L288 212M355 212L356 213L355 212M228 213L229 214L228 213M287 213L288 214L287 213M322 213L323 214L322 213M188 214L189 215L188 214M230 214L231 215L230 214M285 214L286 215L285 214M323 214L324 215L323 214M156 215L157 216L156 215M187 215L188 216L187 215M232 215L233 216L232 215M283 215L284 216L283 215M324 215L325 216L324 215M356 215L357 216L356 215M186 216L187 217L186 216M234 216L235 217L234 216M281 216L282 217L281 216M325 216L326 217L325 216M237 217L238 218L237 217M278 217L279 218L278 217M155 218L155 221L156 221L155 218M240.667 218.333L241.333 218.667L240.667 218.333M274.667 218.333L275.333 218.667L274.667 218.333M328 218L329 219L328 218M357.333 218.667L357.667 219.333L357.333 218.667M182 219L183 220L182 219M244 219L244 220L247 220L244 219M269 219L269 220L272 220L269 219M329 219L330 220L329 219M181 220L182 221L181 220M250 220L250 221L265 221L250 220M330 220L331 221L330 220M297 221L297 222L300 222L297 221M178 222L179 223L178 222M290.667 222.333L291.333 222.667L290.667 222.333z"/>
<path style="fill:#c11d4a; stroke:none;" d="M292 222.465C271.317 226.194 261.255 247.598 265.899 267C271.266 289.424 293.119 308.429 317 303.905C338.386 299.854 347.425 277.585 342.244 258C336.548 236.468 315.158 218.289 292 222.465z"/>
<path style="fill:#470e1d; stroke:none;" d="M305.667 222.333L306.333 222.667L305.667 222.333M333 222L334 223L333 222M177 223L178 224L177 223M213 223L213 224L217 224L213 223M286.667 223.333L287.333 223.667L286.667 223.333M309.667 223.333L310.333 223.667L309.667 223.333M334 223L335 224L334 223M358 223L358 227L359 227L358 223M154 224L154 234L155 234L154 224M206 224L206 225L209 225L206 224z"/>
<path style="fill:#c11d4a; stroke:none;" d="M209 224.439C189.727 227.474 173.893 243.953 170.465 263C165.809 288.867 184.625 310.245 211 305.714C232.576 302.007 247.699 281.101 248.791 260C249.947 237.664 230.736 221.016 209 224.439z"/>
<path style="fill:#470e1d; stroke:none;" d="M222.667 224.333L223.333 224.667L222.667 224.333M284 224L285 225L284 224M312 224L313 225L312 224M174 225L175 226L174 225M203 225L204 226L203 225M226 225L227 226L226 225M282 225L283 226L282 225M315 225L316 226L315 225M337 225L338 226L337 225M173 226L174 227L173 226M200 226L201 227L200 226M228.667 226.333L229.333 226.667L228.667 226.333M280 226L281 227L280 226M317 226L318 227L317 226M338 226L339 227L338 226M171 227L172 228L171 227M198 227L199 228L198 227M231 227L232 228L231 227M279 227L280 228L279 227M319 227L320 228L319 227M170 228L171 229L170 228M196 228L197 229L196 228M232 228L233 229L232 228M277 228L278 229L277 228M320 228L321 229L320 228M341 228L342 229L341 228M168 229L169 230L168 229M194 229L195 230L194 229M234 229L235 230L234 229M276 229L277 230L276 229M322 229L323 230L322 229M167 230L168 231L167 230M192 230L193 231L192 230M235 230L236 231L235 230M275 230L276 231L275 230M323 230L324 231L323 230M344 230L345 231L344 230M165 231L166 232L165 231M191 231L192 232L191 231M274 231L275 232L274 231M346 231L347 232L346 231M163 232L164 233L163 232M189 232L190 233L189 232M273 232L274 233L273 232M326 232L327 233L326 232M347 232L348 233L347 232M161 233L162 234L161 233M188 233L189 234L188 233M272 233L273 234L272 233M327 233L328 234L327 233M349 233L350 234L349 233M155 234L156 235L155 234M158.667 234.333L159.333 234.667L158.667 234.333M187 234L188 235L187 234M271 234L272 235L271 234M328 234L329 235L328 234M351 234L352 235L351 234M329 235L330 236L329 235M353.667 235.333L354.333 235.667L353.667 235.333M241 236L242 237L241 236M270 236L271 237L270 236M330 236L331 237L330 236M242 237L243 238L242 237M331 237L332 238L331 237M243 239L244 240L243 239M268 239L269 240L268 239M181 240L182 241L181 240M244 240L245 241L244 240M180 241L181 242L180 241M267.333 241.667L267.667 242.333L267.333 241.667M334 241L335 242L334 241M179 242L180 243L179 242M245 242L246 243L245 242M335 242L336 243L335 242M266 244L267 245L266 244M336 244L337 245L336 244M177 245L178 246L177 245M246 245L247 246L246 245M357 249L361 247L357 249z"/>
<path style="fill:#c11d4a; stroke:none;" d="M361.044 246.956C355.627 248.259 354.625 256.459 354.171 261C352.797 274.726 355.829 290.083 360.345 303C361.962 307.624 365.377 317.016 371.961 315.149C376.763 313.787 379.812 307.147 381.687 303C388.005 289.022 386.82 271.602 377.956 259C374.85 254.585 367.438 245.418 361.044 246.956z"/>
<path style="fill:#470e1d; stroke:none;" d="M363 246L364 247L363 246M147 247L146 249L147 247z"/>
<path style="fill:#c11d4a; stroke:none;" d="M147.999 247.952C128.715 253.159 123.822 280.796 127.676 297C129.06 302.819 134.71 318.497 142.96 316.149C147.829 314.763 150.024 308.22 151.564 304C155.925 292.049 159.044 276.749 157.83 264C157.325 258.695 156.359 245.695 147.999 247.952z"/>
<path style="fill:#470e1d; stroke:none;" d="M151.667 247.333L152.333 247.667L151.667 247.333M176 247L177 248L176 247M265 247L265 250L266 250L265 247M338 247L339 248L338 247M365 247L366 248L365 247M153 248L154 249L153 248M175 248L176 249L175 248M247 248L248 249L247 248M367 248L368 249L367 248M144 249L145 250L144 249M154 249L155 250L154 249M339 249L340 250L339 249M368 249L369 250L368 249M143 250L144 251L143 250M174 250L175 251L174 250M356 250L357 251L356 250M155 251L156 252L155 251M140 252L141 253L140 252M173 252L174 253L173 252M248 252L248 256L249 256L248 252M340 252L341 253L340 252M355.333 252.667L355.667 253.333L355.333 252.667M372 252L373 253L372 252M139 253L140 254L139 253M156.333 253.667L156.667 254.333L156.333 253.667M373 253L374 254L373 253M138 254L139 255L138 254M264 254L264 261L265 261L264 254M341.333 254.667L341.667 255.333L341.333 254.667M374 254L375 255L374 254M137 255L138 256L137 255M172 255L173 256L172 255M136 256L137 257L136 256M354 256L354 259L355 259L354 256M135 257L136 258L135 257M171.333 257.667L171.667 258.333L171.333 257.667M342.333 257.667L342.667 258.333L342.333 257.667M157 258L157 262L158 262L157 258M377 258L378 259L377 258M378 259L379 260L378 259M133 260L134 261L133 260M170.333 261.667L170.667 262.333L170.333 261.667M343 261L343 265L344 265L343 261M379 261L380 262L379 261M248 262L248 266L249 266L248 262M380 262L381 263L380 262M131 263L132 264L131 263M381 264L382 265L381 264M130 265L131 266L130 265M265.333 265.667L265.667 266.333L265.333 265.667M382.333 266.667L382.667 267.333L382.333 266.667M129 267L130 268L129 267M169 267L169 276L170 276L169 267M128.333 269.667L128.667 270.333L128.333 269.667M247.333 269.667L247.667 270.333L247.333 269.667M266.333 269.667L266.667 270.333L266.333 269.667M383 269L384 270L383 269M127.333 272.667L127.667 273.333L127.333 272.667M267.333 272.667L267.667 273.333L267.333 272.667M384.333 272.667L384.667 273.333L384.333 272.667M157 273L157 279L158 279L157 273M246 273L247 274L246 273M343 274L343 277L344 277L343 274M354 274L354 279L355 279L354 274M245.333 275.667L245.667 276.333L245.333 275.667M268 275L269 276L268 275M385 276L385 281L386 281L385 276M126 277L126 280L127 280L126 277M269 277L270 278L269 277M244 278L245 279L244 278M270 279L271 280L270 279M170.333 280.667L170.667 281.333L170.333 280.667M243 280L244 281L243 280M342 280L343 281L342 280M271 281L272 282L271 281M242 282L243 283L242 282M272 282L273 283L272 282M156 283L156 286L157 286L156 283M171.333 283.667L171.667 284.333L171.333 283.667M341 283L342 284L341 283M355 283L355 286L356 286L355 283M273 284L274 285L273 284M240 285L241 286L240 285M274 285L275 286L274 285M340 285L341 286L340 285M172 286L173 287L172 286M339 287L340 288L339 287M385 287L385 292L386 292L385 287M238 288L239 289L238 288M276 288L277 289L276 288M155.333 289.667L155.667 290.333L155.333 289.667M173 289L174 290L173 289M237 289L238 290L237 289M277 289L278 290L277 289M338 289L339 290L338 289M356.333 289.667L356.667 290.333L356.333 289.667M126 290L126 294L127 294L126 290M174 290L175 291L174 290M236 290L237 291L236 290M278 290L279 291L278 290M235 291L236 292L235 291M279 291L280 292L279 291M337 291L338 292L337 291M175 292L176 293L175 292M280 292L281 293L280 292M336 292L337 293L336 292M176 293L177 294L176 293M281 293L282 294L281 293M335 293L336 294L335 293M357.333 293.667L357.667 294.333L357.333 293.667M154.333 294.667L154.667 295.333L154.333 294.667M232 294L233 295L232 294M334 294L335 295L334 294M384.333 294.667L384.667 295.333L384.333 294.667M231 295L232 296L231 295M284 295L285 296L284 295M333 295L334 296L333 295M127.333 296.667L127.667 297.333L127.333 296.667M178 296L179 297L178 296M230 296L231 297L230 296M285 296L286 297L285 296M332 296L333 297L332 296M153.333 297.667L153.667 298.333L153.333 297.667M179 297L180 298L179 297M229 297L230 298L229 297M331 297L332 298L331 297M358.333 297.667L358.667 298.333L358.333 297.667M180 298L181 299L180 298M288 298L289 299L288 298M330 298L331 299L330 298M383.333 298.667L383.667 299.333L383.333 298.667M226 299L227 300L226 299M248 299L248 300L251 300L248 299z"/>
<path style="fill:#c11d4a; stroke:none;" d="M251 299.439C244.241 300.495 237.724 302.545 232 306.363C196.02 330.362 224.033 380.647 263 374.561C269.793 373.5 276.269 371.273 281.999 367.402C317.053 343.718 289.189 293.474 251 299.439z"/>
<path style="fill:#470e1d; stroke:none;" d="M262 299L262 300L266 300L262 299M290 299L291 300L290 299M328 299L329 300L328 299M128 300L129 301L128 300M183 300L184 301L183 300M224 300L225 301L224 300M244.667 300.333L245.333 300.667L244.667 300.333M268.667 300.333L269.333 300.667L268.667 300.333M292 300L293 301L292 300M327 300L328 301L327 300M359.333 300.667L359.667 301.333L359.333 300.667M152 301L153 302L152 301M184 301L185 302L184 301M223 301L224 302L223 301M241 301L242 302L241 301M271.667 301.333L272.333 301.667L271.667 301.333M294 301L295 302L294 301M325 301L326 302L325 301M382 301L383 302L382 301M129.333 302.667L129.667 303.333L129.333 302.667M186 302L187 303L186 302M221 302L222 303L221 302M238.667 302.333L239.333 302.667L238.667 302.333M274 302L275 303L274 302M296.667 302.333L297.333 302.667L296.667 302.333M322.667 302.333L323.333 302.667L322.667 302.333M188 303L189 304L188 303M218.667 303.333L219.333 303.667L218.667 303.333M236 303L237 304L236 303M276 303L277 304L276 303M299.667 303.333L300.333 303.667L299.667 303.333M319.667 303.333L320.333 303.667L319.667 303.333M360.333 303.667L360.667 304.333L360.333 303.667M381 303L382 304L381 303M151 304L152 305L151 304M190 304L191 305L190 304M216 304L217 305L216 304M234 304L235 305L234 304M278 304L279 305L278 304M304 304L304 305L308 305L304 304M313 304L313 305L317 305L313 304M130 305L131 306L130 305M193 305L194 306L193 305M212.667 305.333L213.333 305.667L212.667 305.333M233 305L234 306L233 305M280 305L281 306L280 305M380 305L381 306L380 305M150.333 306.667L150.667 307.333L150.333 306.667M197 306L197 307L201 307L197 306M205 306L205 307L210 307L205 306M231 306L232 307L231 306M281 306L282 307L281 306M361 306L362 307L361 306M131 307L132 308L131 307M230 307L231 308L230 307M283 307L284 308L283 307M379 307L380 308L379 307M132 308L133 309L132 308M284 308L285 309L284 308M362 308L363 309L362 308M149 309L150 310L149 309M227 309L228 310L227 309M285 309L286 310L285 309M133 310L134 311L133 310M226 310L227 311L226 310M286 310L287 311L286 310M363 310L364 311L363 310M377 310L378 311L377 310M134 311L135 312L134 311M225 311L226 312L225 311M287 311L288 312L287 311M376 311L377 312L376 311M147 312L148 313L147 312M224 312L225 313L224 312M288 312L289 313L288 312M289 313L290 314L289 313M344 313L344 314L347 314L344 313z"/>
<path style="fill:#c11d4a; stroke:none;" d="M347 313.555C326.321 315.759 308.185 340.442 303.159 359C298.533 376.081 302.576 391.021 323 388.826C343.507 386.623 363.021 366.696 363.961 346C364.491 334.315 364.187 311.722 347 313.555z"/>
<path style="fill:#470e1d; stroke:none;" d="M350 313L350 314L353 314L350 313M365 313L366 314L365 313M290 314L291 315L290 314M341.667 314.333L342.333 314.667L341.667 314.333M354 314L355 315L354 314M366 314L367 315L366 314M291 315L292 316L291 315M339 315L340 316L339 315M356 315L357 316L356 315M368 315L369 316L368 315M372 315L373 316L372 315M139 316L140 317L139 316M143 316L144 317L143 316M221 316L222 317L221 316M337 316L338 317L337 316M292 317L293 318L292 317M335 317L336 318L335 317M293 318L294 319L293 318M359 318L360 319L359 318M157.667 319.333L158.333 319.667L157.667 319.333z"/>
<path style="fill:#c11d4a; stroke:none;" d="M159 319.469C144.688 322.179 146.286 341.346 149.159 352C154.612 372.224 176.405 392.987 198.999 387.467C211.401 384.437 209.298 368.295 206.561 359C201.311 341.173 180.252 315.445 159 319.469z"/>
<path style="fill:#470e1d; stroke:none;" d="M166.667 319.333L167.333 319.667L166.667 319.333M219 319L220 320L219 319M332 319L333 320L332 319M154 320L155 321L154 320M170 320L171 321L170 320M294 320L295 321L294 320M331 320L332 321L331 320M360 320L361 321L360 320M173 321L174 322L173 321M218 321L219 322L218 321M329 321L330 322L329 321M175 322L176 323L175 322M295 322L296 323L295 322M328 322L329 323L328 322M361 322L362 323L361 322M177 323L178 324L177 323M217 323L218 324L217 323M327 323L328 324L327 323M150 324L151 325L150 324M326 324L327 325L326 324M149.333 325.667L149.667 326.333L149.333 325.667M180 325L181 326L180 325M296 325L297 326L296 325M362 325L363 326L362 325M182 326L183 327L182 326M216.333 326.667L216.667 327.333L216.333 326.667M183 327L184 328L183 327M148 328L149 329L148 328M297.333 328.667L297.667 329.333L297.333 328.667M363 328L363 331L364 331L363 328M187 330L188 331L187 330M215 330L215 333L216 333L215 330M147 331L147 335L148 335L147 331M188 331L189 332L188 331M189 332L190 333L189 332M190 333L191 334L190 333M298 333L298 341L299 341L298 333M191 334L192 335L191 334M364 334L364 347L365 347L364 334M192 335L193 336L192 335M315 335L316 336L315 335M193 336L194 337L193 336M314 336L315 337L314 336M194 337L195 338L194 337M313 337L314 338L313 337M195 338L196 339L195 338M196 339L197 340L196 339M312 339L313 340L312 339M197 340L198 341L197 340M311 340L312 341L311 340M215 341L215 345L216 345L215 341M147 342L147 346L148 346L147 342M198 342L199 343L198 342M310 342L311 343L310 342M199 343L200 344L199 343M309 343L310 344L309 343M297.333 344.667L297.667 345.333L297.333 344.667M200 345L201 346L200 345M308 345L309 346L308 345M201 346L202 347L201 346M216 347L217 348L216 347M307 347L308 348L307 347M202 348L203 349L202 348M296.333 348.667L296.667 349.333L296.333 348.667M148.333 349.667L148.667 350.333L148.333 349.667M306 349L307 350L306 349M203 350L204 351L203 350M217 350L218 351L217 350M363 350L363 353L364 353L363 350M295 351L296 352L295 351M204.333 352.667L204.667 353.333L204.333 352.667M218 352L219 353L218 352M305 352L306 353L305 352M149 353L150 354L149 353M294 353L295 354L294 353M219 354L220 355L219 354M304 354L305 355L304 354M362.333 354.667L362.667 355.333L362.333 354.667M205 355L206 356L205 355M293 355L294 356L293 355M150 356L151 357L150 356M220 356L221 357L220 356M292 356L293 357L292 356M221 357L222 358L221 357M303 357L304 358L303 357M361.333 357.667L361.667 358.333L361.333 357.667M151.333 358.667L151.667 359.333L151.333 358.667M206 358L207 359L206 358M291 358L292 359L291 358M290 359L291 360L290 359M223 360L224 361L223 360M289 360L290 361L289 360M302.333 360.667L302.667 361.333L302.333 360.667M360 360L361 361L360 360M152 361L153 362L152 361M207.333 361.667L207.667 362.333L207.333 361.667M224 361L225 362L224 361M225 362L226 363L225 362M359 362L360 363L359 362M153 363L154 364L153 363M226 363L227 364L226 363M227 364L228 365L227 364M285 364L286 365L285 364M358 364L359 365L358 364M154 365L155 366L154 365M208 365L208 370L209 370L208 365M284 365L285 366L284 365M301 365L301 368L302 368L301 365M357 365L358 366L357 365M155 366L156 367L155 366M283 366L284 367L283 366M231 367L232 368L231 367M280 368L281 369L280 368M355 368L356 369L355 368M157 369L158 370L157 369M234 369L235 370L234 369M278 369L279 370L278 369M354 369L355 370L354 369M158 370L159 371L158 370M236 370L237 371L236 370M276 370L277 371L276 370M159 371L160 372L159 371M238 371L239 372L238 371M274 371L275 372L274 371M241 372L242 373L241 372M272 372L273 373L272 372M244 373L245 374L244 373M268.667 373.333L269.333 373.667L268.667 373.333M247 374L247 375L250 375L247 374M263 374L263 375L266 375L263 374M208 375L208 378L209 378L208 375M164 376L165 377L164 376M165 377L166 378L165 377M301 377L301 380L302 380L301 377M166 378L167 379L166 378M344 379L345 380L344 379M169 380L170 381L169 380M207 380L208 381L207 380M343 380L344 381L343 380M170 381L171 382L170 381M302 381L303 382L302 381M172 382L173 383L172 382M206 382L207 383L206 382M340 382L341 383L340 382M174 383L175 384L174 383M303 383L304 384L303 383M338 383L339 384L338 383M176 384L177 385L176 384M336 384L337 385L336 384M178 385L179 386L178 385M334 385L335 386L334 385M180.667 386.333L181.333 386.667L180.667 386.333M202 386L203 387L202 386M252 386L252 387L266 387L252 386M306 386L307 387L306 386M332 386L333 387L332 386M184.667 387.333L185.333 387.667L184.667 387.333M199 387L200 388L199 387M243 387L243 388L247 388L243 387z"/>
<path style="fill:#c11d4a; stroke:none;" d="M247 387.428C238.679 388.62 219.417 390.935 216.931 401.004C215.766 405.722 220.901 410.084 224.001 412.815C233.603 421.273 248.222 426.371 261 424.711C272.072 423.272 282.77 418.413 290.907 410.711C294.328 407.473 298.54 402.081 295.817 397.185C288.902 384.754 258.795 385.739 247 387.428z"/>
<path style="fill:#470e1d; stroke:none;" d="M271 387L271 388L274 388L271 387M308 387L309 388L308 387M329.667 387.333L330.333 387.667L329.667 387.333M190 388L190 389L195 389L190 388M238 388L238 389L241 389L238 388M277.667 388.333L278.333 388.667L277.667 388.333M310.667 388.333L311.333 388.667L310.667 388.333M325.667 388.333L326.333 388.667L325.667 388.333M234.667 389.333L235.333 389.667L234.667 389.333M281.667 389.333L282.333 389.667L281.667 389.333M315 389L315 390L321 390L315 389M231.667 390.333L232.333 390.667L231.667 390.333M285 390L286 391L285 390M228.667 391.333L229.333 391.667L228.667 391.333M287.667 391.333L288.333 391.667L287.667 391.333M226 392L227 393L226 392M290 392L291 393L290 392M224 393L225 394L224 393M292 393L293 394L292 393M222 394L223 395L222 394M293 394L294 395L293 394M220 395L221 396L220 395M219 396L220 397L219 396M218 397L219 398L218 397M296 397L297 398L296 397M217 398L218 399L217 398M297.333 399.667L297.667 400.333L297.333 399.667M216 400L217 401L216 400M216.333 403.667L216.667 404.333L216.333 403.667M296 403L297 404L296 403M295 405L296 406L295 405M294 406L295 407L294 406M218 407L219 408L218 407M219 408L220 409L219 408M220 409L221 410L220 409M221 410L222 411L221 410M222 411L223 412L222 411M223 412L224 413L223 412M288 412L289 413L288 412M224 413L225 414L224 413M287 413L288 414L287 413M286 414L287 415L286 414M227 415L228 416L227 415M283 416L284 417L283 416M230 417L231 418L230 417M281 417L282 418L281 417M232 418L233 419L232 418M280 418L281 419L280 418M234 419L235 420L234 419M278 419L279 420L278 419M236 420L237 421L236 420M276 420L277 421L276 420M238 421L239 422L238 421M273.667 421.333L274.333 421.667L273.667 421.333M240.667 422.333L241.333 422.667L240.667 422.333M271 422L272 423L271 422M243.667 423.333L244.333 423.667L243.667 423.333M267.667 423.333L268.333 423.667L267.667 423.333M247 424L247 425L250 425L247 424M262 424L262 425L265 425L262 424z"/>
</svg>
